<svg xmlns="http://www.w3.org/2000/svg" xml:space="preserve" width="90px" height="90px" version="1.1"
     shape-rendering="geometricPrecision" text-rendering="geometricPrecision" image-rendering="optimizeQuality"
     fill-rule="evenodd" clip-rule="evenodd" viewBox="0 0 90 90" enable-background="new 0 0 512 512">
  <path fill="black"
        d="M70 53c-2,0 -4,0 -6,1l0 0 -3 -6 4 -7 0 0 3 0c2,0 3,1 3,2 0,1 1,2 1,2 1,0 2,-1 2,-2 0,-3 -3,-6 -6,-6l-4 0c-1,0 -1,1 -2,1l-4 8 -20 0 -1 -2 3 0c1,0 2,-1 2,-2 0,0 -1,-1 -2,-1l-9 0c-1,0 -2,1 -2,1 0,1 1,2 2,2l2 0 2 2 -11 0c-3,0 -5,-2 -5,-4l0 -1 1 0 0 -4c1,0 2,0 2,-1l3 -5c0,0 0,-1 0,-3l0 -6 1 0c1,0 2,-1 2,-2 0,-1 -1,-2 -2,-2l-1 0 0 -5c0,-1 -1,-2 -2,-2 -1,0 -2,1 -2,2l0 5 -7 0 0 -5c0,-1 -1,-2 -2,-2 -1,0 -2,1 -2,2l0 5 -1 0c-1,0 -2,1 -2,2 0,1 1,2 2,2l1 0 0 8c0,0 0,1 0,1l3 5c0,1 1,1 2,1l0 4 1 0 0 1c0,4 3,7 8,7l11 0 -3 5 0 0c-1,-1 -3,-1 -5,-1 -9,0 -16,6 -16,15 0,8 7,15 16,15 7,0 14,-6 15,-14l6 0c1,0 1,0 2,0l9 -18 2 4 0 0c-4,3 -6,8 -6,13 0,8 6,15 15,15 8,0 15,-7 15,-15 0,-9 -7,-15 -15,-15zm-56 -30l7 0c1,0 1,0 1,1 0,1 0,1 -1,1l-7 0c-1,0 -1,0 -1,-1 0,-1 0,-1 1,-1zm0 6c-1,0 -1,0 -1,-1 0,0 0,-1 1,-1l7 0c1,0 1,1 1,1 0,1 0,1 -1,1l-7 0zm13 51c-7,0 -12,-6 -12,-12 0,-7 5,-12 12,-12 1,0 2,0 4,1l-6 10c0,0 0,1 0,2 0,0 1,0 2,0l11 0 0 0c-1,6 -5,11 -11,11zm11 -14l-9 0 5 -8c2,2 4,5 4,8zm0 0l0 0zm9 0l-5 0c-1,-4 -3,-8 -7,-11l0 0 3 -6 18 0 -9 17zm23 14c-7,0 -12,-6 -12,-12 0,-4 2,-8 5,-10l5 11c1,0 1,0 2,0 0,0 0,0 0,0 1,0 2,-1 1,-2l-5 -10c1,-1 2,-1 4,-1 6,0 12,5 12,12 0,6 -6,12 -12,12z"/>
</svg>