<svg version="1.1" xmlns="http://www.w3.org/2000/svg" viewBox="0 0 1000 1000"
     xml:space="preserve">
    <g transform="translate(0,290) scale(0.1,-0.1)">
    <path d="M6046.7,753.8c-52.3-54.3-60.4-72.4-50.3-136.8c20.1-118.7,70.4-144.9,277.7-144.9c98.6,0,179.1-6,179.1-14.1c0-8-52.3-167-114.7-352.1l-116.7-338H4789.2H3354.5l18.1,46.3c10.1,24.1,56.3,124.8,100.6,221.3c94.6,205.2,100.6,253.5,36.2,326c-38.2,44.3-116.7,70.4-507.1,171c-253.5,66.4-493,120.7-527.2,120.7c-92.6,0-146.9-60.4-146.9-161c0-50.3,14.1-94.6,36.2-116.7c22.1-22.1,185.1-74.5,412.5-132.8c207.3-54.3,376.3-106.7,376.3-116.7c0-8-126.8-299.8-281.7-647.9c-154.9-346.1-281.7-653.9-281.7-684.1c0-122.7,100.6-191.2,213.3-142.9c52.3,22.1,80.5,70.4,207.2,354.1c82.5,181.1,154.9,342.1,163,358.2c10.1,18.1,108.7-106.6,301.8-380.3c177.1-249.5,305.8-412.5,334-422.5c96.6-36.2,209.3,52.3,209.3,163c0,36.2-74.5,159-221.3,368.2c-122.7,173-221.3,317.9-221.3,324c0,6,565.4,10.1,1257.6,10.1c692.2,0,1257.6-6,1257.6-14.1c0-8-38.2-130.8-84.5-271.6l-84.5-257.5l40.2-54.3c58.3-78.5,136.8-102.6,205.2-64.4c44.3,24.1,68.4,72.4,132.8,255.5c42.2,122.7,82.5,225.4,90.5,225.4c6,0,118.7-163,247.5-362.2c148.9-229.4,253.5-370.2,285.7-384.3c98.6-46.3,213.3,44.3,213.3,167c0,22.1-138.8,255.5-305.8,515.1c-169,261.6-305.8,482.9-301.8,495c4,12.1,66.4,197.2,138.8,410.5l132.8,386.3h195.2c181.1,0,197.2,4,241.5,50.3c68.4,74.5,66.4,181.1-8.1,243.5c-54.3,48.3-56.3,48.3-587.5,48.3h-535.2L6046.7,753.8z"/>
        <path
                d="M4404.9-982.7c-36.2-38.2-44.3-70.4-44.3-181.1c0-126.8-4-134.8-56.3-163c-84.5-44.3-215.3-195.2-247.5-285.7c-22.1-62.4-28.2-301.8-28.2-1235.4c0-1130.8,0-1159,42.3-1247.5c46.3-102.6,142.9-205.2,237.4-257.5c54.3-30.2,134.8-34.2,696.2-34.2c561.4,0,641.9,4,696.2,34.2c94.6,52.3,191.2,154.9,237.4,257.5c42.2,88.5,42.2,116.7,42.2,1247.5c0,933.6-6,1173.1-28.2,1235.4c-32.2,90.5-163,241.5-247.5,285.7c-54.3,28.2-56.3,36.2-56.3,167c0,116.7-6,142.9-46.3,179.1c-54.3,50.3-148.9,58.4-207.2,16.1c-28.2-22.1-40.2-60.4-48.3-167l-10.1-136.8h-332h-332l-10.1,136.8c-8,106.7-20.1,144.9-48.3,167C4553.7-920.3,4455.2-930.4,4404.9-982.7z M5610.1-1672.9l48.3-52.3l6-1102.7l4-1102.6l-52.3-62.4l-52.3-62.4h-559.4h-559.4l-52.3,62.4l-52.3,62.4v1092.6v1092.6l52.3,62.4l52.3,62.4h557.4h559.4L5610.1-1672.9z"/>
        <path
                d="M4638.3-1978.7c-110.7-34.2-150.9-177.1-74.4-273.7l40.2-52.3h400.4h400.4l40.2,52.3c54.3,70.4,54.3,152.9-2,219.3c-46.3,52.3-46.3,52.3-412.5,56.3C4829.4-1974.7,4654.4-1974.7,4638.3-1978.7z"/>
        <path
                d="M4571.9-2717.2c-68.4-66.4-68.4-175.1,0-243.5l50.3-50.3l394.4,6c386.3,6,394.4,6,432.6,54.3c54.3,66.4,50.3,173-12.1,233.4c-48.3,50.3-52.3,50.3-432.6,50.3C4624.2-2666.9,4620.1-2666.9,4571.9-2717.2z"/>
        <path
                d="M4563.8-3423.4c-24.2-30.2-42.3-78.5-42.3-108.7s18.1-78.5,42.3-108.7l40.2-52.3h400.4h400.4l40.2,52.3c54.3,68.4,54.3,148.9,0,217.3l-40.2,52.3h-400.4h-400.4L4563.8-3423.4z"/>
        <path
                d="M1626.1-1359C931.9-1455.5,342.3-1994.8,163.3-2699c-116.7-466.8-72.4-901.5,136.8-1326c368.2-750.5,1189.2-1136.9,1979.9-935.6c666,171,1181.1,748.5,1305.9,1462.8c163,939.7-416.5,1871.3-1309.9,2098.7C2098.9-1352.9,1799.1-1334.8,1626.1-1359z M2111-1709.1c517.1-98.6,941.7-480.9,1116.7-1008.1c48.3-146.9,54.3-189.1,54.3-462.8s-6-315.9-54.3-462.8c-229.4-688.2-883.3-1116.7-1557.4-1018.1C1060.7-4574.4,575.7-4107.5,449-3487.8C237.7-2457.6,1115-1517.9,2111-1709.1z"/>
        <path
                d="M2263.9-1984.7c-58.4-22.1-52.3-10.1-356.1-684.1c-120.7-271.6-203.2-480.9-203.2-519.1c0-78.5,76.5-163,148.9-163c28.2,0,72.4,20.1,98.6,44.3c38.2,36.2,462.8,949.7,523.2,1126.8c20.1,56.3-26.2,156.9-88.5,187.1c-30.2,16.1-58.3,30.2-62.4,28.2C2320.3-1964.6,2294.1-1974.7,2263.9-1984.7z"/>
        <path
                d="M7926.1-1359c-905.5-126.8-1579.5-969.9-1525.2-1911.5c6-116.7,24.1-267.6,42.2-338c219.3-907.5,1036.3-1503.1,1909.5-1392.4c720.3,90.5,1301.8,613.7,1495,1346.1c44.3,163,52.3,237.4,52.3,474.9c0,239.5-8,311.9-52.3,476.9c-169,633.8-666,1146.9-1265.6,1301.9C8396.9-1352.9,8101.2-1334.8,7926.1-1359z M8411-1709.1c678.1-130.8,1181.1-758.6,1181.1-1470.9c0-861.2-718.3-1555.4-1547.3-1491c-535.2,40.2-1014.1,400.4-1223.4,917.5c-223.3,555.3-96.6,1205.3,315.9,1627.8C7485.4-1767.4,7940.2-1620.5,8411-1709.1z"/>
        <path
                d="M7509.6-2107.5c-124.8-66.4-122.7-171,10.1-376.3c54.3-86.5,118.7-173,140.8-193.2c94.6-86.5,249.5-14.1,249.5,116.7c0,86.5-205.2,418.5-279.7,452.7C7567.9-2079.3,7559.9-2079.3,7509.6-2107.5z"/>
        <path
                d="M8036.8-2739.3c-167-171-324-342.1-350.1-376.3c-58.3-76.5-58.3-152.9-4-223.4c38.2-48.3,52.3-52.3,211.3-52.3c92.6,0,169-4,169-8.1c0-4-72.4-78.5-161-165c-146.9-140.8-161-163-161-233.4c0-92.5,70.4-177.1,150.9-177.1c52.3,0,106.6,44.3,527.2,444.7c219.3,207.3,259.6,267.6,239.4,348.1c-26.2,106.6-82.5,132.8-279.7,132.8h-179.1l173.1,181.1c94.6,100.6,179.1,205.2,185.1,233.4c16.1,60.4-24.1,163-74.4,189.2C8386.9-2393.2,8352.7-2415.3,8036.8-2739.3z"/></g>
</svg>