<?xml version="1.0" encoding="UTF-8"?> <!-- Generator: Adobe Illustrator 23.0.6, SVG Export Plug-In . SVG Version: 6.00 Build 0) -->
<svg xmlns:xlink="http://www.w3.org/1999/xlink" xmlns="http://www.w3.org/2000/svg" id="Layer_1" x="0px" y="0px"
     viewBox="0 0 250 250" style="enable-background:new 0 0 250 250;" xml:space="preserve"> <style type="text/css"> .st0{fill:#F7931E;} .st1{fill:#FFFFFF;stroke:#000000;stroke-width:4;stroke-linecap:round;stroke-linejoin:round;stroke-miterlimit:10;} .st2{fill:none;stroke:#000000;stroke-width:8;stroke-linecap:round;stroke-linejoin:round;stroke-miterlimit:10;} .st3{fill:#FFFFFF;stroke:#000000;stroke-width:8;stroke-linecap:round;stroke-linejoin:round;stroke-miterlimit:10;} .st4{fill:none;stroke:#000000;stroke-width:4;stroke-linecap:round;stroke-linejoin:round;stroke-miterlimit:10;} </style>
    <g> <rect x="-0.05" y="0.07" class="st0" width="250" height="250"></rect>
        <g> <path class="st1" d="M156.95,136.07h-24c-2.21,0-4-1.79-4-4v-6h28"></path>
            <g> <path class="st2" d="M171.95,150.07c-8.28,0-15-11.19-15-25s6.72-25,15-25h1h8v50h-8H171.95z"></path>
                <ellipse class="st3" cx="181.95" cy="125.07" rx="15" ry="25"></ellipse>
                <line class="st2" x1="160.95" y1="140.07" x2="168.95" y2="140.07"></line>
                <ellipse class="st4" cx="181.95" cy="125.07" rx="7" ry="15"></ellipse> </g>
            <rect x="116.95" y="126.07" class="st4" width="12" height="6"></rect>
            <g> <path class="st2" d="M67.95,150.07c-8.28,0-15-11.19-15-25s6.72-25,15-25h1h8v50h-8H67.95z"></path>
                <ellipse class="st3" cx="77.95" cy="125.07" rx="15" ry="25"></ellipse>
                <line class="st2" x1="56.95" y1="140.07" x2="64.95" y2="140.07"></line> </g>
            <path class="st1" d="M76.95,136.07h36c2.21,0,4-1.79,4-4v-6h-40V136.07z"></path> </g> </g> </svg>