<?xml version="1.0" encoding="UTF-8"?>
<!DOCTYPE svg PUBLIC "-//W3C//DTD SVG 1.1//EN" "http://www.w3.org/Graphics/SVG/1.1/DTD/svg11.dtd">
<!-- Creator: CorelDRAW X7 -->
<svg xmlns:xlink="http://www.w3.org/1999/xlink" xmlns="http://www.w3.org/2000/svg" xml:space="preserve" width="255px" height="255px" version="1.1" shape-rendering="geometricPrecision" text-rendering="geometricPrecision" image-rendering="optimizeQuality" fill-rule="evenodd" clip-rule="evenodd" viewBox="0 0 255 255" ml-update="aware">
 <g id="Layer_x0020_1">
  <metadata id="CorelCorpID_0Corel-Layer"/>
  <path fill="black" d="M166 49l0 -4c0,-15 -12,-26 -26,-26l-30 0c-14,0 -25,11 -25,26l0 4c-43,17 -71,58 -71,104 0,10 2,18 2,19 1,7 8,14 15,17 1,0 5,1 12,3 15,31 47,51 82,51 35,0 67,-20 82,-51 7,-2 12,-3 12,-3 7,-2 14,-10 16,-17 0,-1 1,-9 1,-19 0,-46 -28,-87 -70,-104zm-74 -4c0,-11 8,-19 18,-19l30 0c10,0 18,8 18,19l0 77c0,10 -8,18 -18,18l-30 0c-10,0 -18,-8 -18,-18l0 -77zm-3 155c-5,0 -7,-3 -7,-5 0,-2 3,-4 7,-4l72 0c5,0 7,2 7,4 0,2 -3,5 -7,5l-72 0zm62 8c-8,4 -17,6 -26,6 -9,0 -18,-2 -26,-6l52 0zm-31 -25c0,-18 -2,-29 -4,-34l18 0c-2,5 -4,16 -4,34l-10 0zm-97 -13c0,0 -2,-8 -2,-17 0,-42 26,-80 64,-95l0 65c0,13 9,24 22,25 1,1 5,7 5,35l-23 0c-7,0 -12,3 -14,8 -18,-3 -41,-10 -42,-10 -4,-1 -9,-6 -10,-11zm102 65c-29,0 -57,-16 -72,-41 7,2 15,3 22,5 1,4 5,7 11,8l-1 0c12,10 26,15 40,15 15,0 29,-5 40,-15l0 0c5,-1 9,-4 11,-8 7,-2 14,-3 21,-5 -16,25 -43,41 -72,41zm102 -65c-1,5 -6,10 -10,11 -1,0 -23,6 -42,10 -2,-5 -7,-8 -14,-8l-23 0c0,-28 4,-34 5,-35 13,-2 23,-12 23,-25l0 -65c38,16 63,54 63,95 0,9 -2,17 -2,17z"/>
 </g>
</svg>