<svg xmlns="http://www.w3.org/2000/svg" xml:space="preserve" width="90px" height="90px" version="1.1"
     shape-rendering="geometricPrecision" text-rendering="geometricPrecision" image-rendering="optimizeQuality"
     fill-rule="evenodd" clip-rule="evenodd" viewBox="0 0 90 90" enable-background="new 0 0 100 100">
 <path fill="black"
       d="M70 59c-1,0 -1,0 -1,0l-8 -35c2,0 2,-1 2,-2l0 -2c0,0 0,0 0,0l1 -1 2 -1c0,1 1,2 2,2 0,0 1,0 1,0l9 -1c0,-1 1,-1 2,-2 0,0 0,-1 0,-2 0,-2 -2,-3 -3,-3l-9 2c-1,0 -2,0 -2,1 -1,0 -1,1 -1,1l-2 1 -2 1c0,0 -1,0 -1,0l-2 0c0,0 -1,1 -1,1l-3 0 -2 0c0,0 -1,-1 -2,-1 0,0 -1,0 -1,0l-9 3c0,0 -1,1 -1,1 -1,1 -1,2 -1,3 1,1 2,2 3,2 1,0 1,0 1,0l9 -3c1,0 2,-1 2,-3l2 0 1 0 1 2c0,1 1,2 2,2 0,0 0,0 0,0l5 21 -15 21 -15 0c-1,-8 -7,-13 -15,-13 -4,0 -8,1 -10,4l1 2c3,-3 6,-4 9,-4 6,0 12,5 12,11l-2 0c-1,-5 -5,-8 -10,-8 -6,0 -10,4 -10,10 0,6 4,10 10,10 4,0 8,-2 10,-6l25 0c2,0 4,-2 4,-4l0 -2 -1 0 9 -12 0 4c-4,2 -7,5 -7,10 0,6 5,10 11,10 6,0 10,-4 10,-10 0,-6 -4,-10 -10,-10zm-2 -43c0,0 0,0 0,0l9 -1c0,0 0,0 0,0 1,0 1,0 1,0 0,1 0,1 0,1 0,0 -1,0 -1,0l-9 2c0,0 0,0 0,0 0,0 -1,0 -1,-1 0,0 0,0 1,-1zm-18 6l-8 3c-1,0 -1,-1 -1,-1 -1,0 -1,0 0,-1 0,0 0,0 0,0l9 -3c0,0 0,0 0,0 0,0 1,1 1,1 0,0 0,1 -1,1zm9 0l0 -1c0,-1 0,-1 0,-1l1 0c0,0 0,0 0,0l1 2c0,0 0,0 0,0l-1 1c0,0 0,0 0,0 0,0 0,0 0,0l-1 0c0,0 0,0 0,-1zm-40 55c-4,0 -8,-3 -8,-8 0,-4 4,-8 8,-8 4,0 7,2 8,6l-2 0c-1,-3 -3,-4 -6,-4 -3,0 -6,3 -6,6 0,4 3,6 6,6 2,0 4,-1 5,-2l2 0c-1,2 -4,4 -7,4zm0 -9c-1,0 -1,1 -1,1 0,1 0,1 0,1 0,0 0,0 0,1 1,0 1,0 1,0 0,0 0,0 0,0 0,0 0,0 0,0 0,0 0,0 0,1 0,0 0,0 0,0 0,0 1,0 1,0 0,0 0,0 0,0 0,0 0,0 0,0 0,0 0,0 0,0 1,0 1,0 1,1 0,0 0,0 0,0 0,0 0,0 0,0 -1,0 -1,0 -2,0 -2,0 -4,-2 -4,-4 0,-2 2,-4 4,-4 1,0 3,1 4,2l-3 0c0,0 -1,0 -1,1zm35 3l-24 0 -4 0 -4 0c-1,0 -1,-1 -2,-2 0,0 0,0 0,0 0,0 0,0 0,0l6 0 4 0 26 0c-1,1 -1,2 -2,2zm1 -4l-3 0 12 -18 1 3 -10 15zm15 10c-5,0 -8,-3 -8,-8 0,-3 2,-6 5,-8l0 2c-2,1 -3,3 -3,6 0,4 2,6 6,6 3,0 6,-2 6,-6 0,-3 -3,-6 -6,-6 0,0 0,0 -1,0l0 -2c0,0 1,0 1,0 4,0 8,4 8,8 0,5 -4,8 -8,8zm-1 -6c0,0 0,1 1,1 0,0 0,0 0,0 1,-1 1,-1 1,-2l-1 -5c2,0 4,2 4,4 0,2 -2,4 -4,4 -2,0 -4,-2 -4,-4 0,-1 1,-3 2,-3l1 5z"/>
</svg>