<svg width="16" height="15" viewBox="0 0 16 15" fill="none" xmlns="http://www.w3.org/2000/svg">
    <path d="M15.5566 6.24221C15.4604 5.94476 15.1966 5.73349 14.8844 5.70536L10.6446 5.32038L8.96801 1.39623C8.84439 1.10864 8.56285 0.922485 8.25004 0.922485C7.93724 0.922485 7.6557 1.10864 7.53208 1.39691L5.85552 5.32038L1.61498 5.70536C1.30341 5.73417 1.04025 5.94476 0.943531 6.24221C0.846809 6.53966 0.936134 6.86592 1.17183 7.07158L4.37667 9.88224L3.43164 14.0451C3.36248 14.3512 3.48129 14.6676 3.73525 14.8512C3.87176 14.9498 4.03147 15 4.19253 15C4.33139 15 4.46913 14.9626 4.59275 14.8886L8.25004 12.7028L11.906 14.8886C12.1735 15.0495 12.5108 15.0349 12.7642 14.8512C13.0182 14.667 13.1369 14.3505 13.0678 14.0451L12.1227 9.88224L15.3276 7.07214C15.5633 6.86592 15.6533 6.54022 15.5566 6.24221Z"
          fill="#FFC107"/>
</svg>
