<?xml version="1.0" encoding="UTF-8"?>
<svg xmlns:xlink="http://www.w3.org/1999/xlink" xmlns="http://www.w3.org/2000/svg" id="Layer_1" x="0px" y="0px"
     viewBox="0 0 250 250" xml:space="preserve">
    <style type="text/css">
        .st1{fill:#FFFFFF;stroke:#000000;stroke-width:8;stroke-linecap:round;stroke-linejoin:round;stroke-miterlimit:10;}
        .st2{fill:none;stroke:#000000;stroke-width:8;stroke-linecap:round;stroke-linejoin:round;stroke-miterlimit:10;}
        .st3{fill:none;stroke:#000000;stroke-width:4;stroke-linecap:round;stroke-linejoin:round;stroke-miterlimit:10;}
        .st4{fill:#FFFFFF;stroke:#000000;stroke-width:4;stroke-linecap:round;stroke-linejoin:round;stroke-miterlimit:10;}
    </style>
    <g>
        <circle cx="125" cy="125" class="st0" r="125" fill="#F7931E"></circle>
        <g>
            <circle class="st1" cx="66.95" cy="168.07" r="14"></circle>
            <circle class="st1" cx="174.95" cy="168.07" r="14"></circle>
            <polyline class="st2" points="66.95,168.07 90.95,72.07 74.95,72.07 "></polyline>
            <circle class="st2" cx="74.95" cy="72.07" r="4"></circle>
            <path class="st3"
                  d="M196.95,168.07c0-12.15-9.85-22-22-22c-9.33,0-17.3,5.81-20.5,14l-1.5,0h-66l12,14"></path>
            <path class="st4" d="M98.95,174.07h74c3.31,0,6-2.69,6-6l0,0c0-3.31-2.69-6-6-6h-84L98.95,174.07z"></path>
            <line class="st2" x1="74.95" y1="136.07" x2="98.95" y2="160.07"></line>
            <line class="st3" x1="102.95" y1="168.07" x2="130.95" y2="168.07"></line>
            <path class="st3" d="M56.95,148.47c3-1.53,6.4-2.4,10-2.4c2.08,0,4.09,0.29,6,0.83"></path>
        </g>
    </g>
</svg>