<?xml version="1.0" encoding="UTF-8"?> <!-- Generator: Adobe Illustrator 23.0.6, SVG Export Plug-In . SVG Version: 6.00 Build 0) -->
<svg xmlns:xlink="http://www.w3.org/1999/xlink" xmlns="http://www.w3.org/2000/svg" id="Layer_1" x="0px" y="0px"
     viewBox="0 0 150 122" style="enable-background:new 0 0 150 122;" xml:space="preserve"> <style type="text/css"> .st0{fill:#FFFFFF;stroke:#000000;stroke-width:8;stroke-linecap:round;stroke-linejoin:round;stroke-miterlimit:10;} .st1{fill:none;stroke:#000000;stroke-width:8;stroke-linecap:round;stroke-linejoin:round;stroke-miterlimit:10;} .st2{fill:none;stroke:#000000;stroke-width:4;stroke-linecap:round;stroke-linejoin:round;stroke-miterlimit:10;} .st3{fill:#FFFFFF;stroke:#000000;stroke-width:4;stroke-linecap:round;stroke-linejoin:round;stroke-miterlimit:10;} </style>
    <g> <g> <circle class="st0" cx="17.95" cy="104.07" r="14"></circle>
        <circle class="st0" cx="125.95" cy="104.07" r="14"></circle>
        <polyline class="st1" points="17.95,104.07 41.95,8.07 25.95,8.07 "></polyline>
        <circle class="st1" cx="25.95" cy="8.07" r="4"></circle>
        <path class="st2" d="M147.95,104.07c0-12.15-9.85-22-22-22c-9.33,0-17.3,5.81-20.5,14l-1.5,0h-66l12,14"></path>
        <path class="st3" d="M49.95,110.07h74c3.31,0,6-2.69,6-6v0c0-3.31-2.69-6-6-6h-84L49.95,110.07z"></path>
        <line class="st1" x1="25.95" y1="72.07" x2="49.95" y2="96.07"></line>
        <line class="st2" x1="53.95" y1="104.07" x2="81.95" y2="104.07"></line>
        <path class="st2" d="M7.95,84.47c3-1.53,6.4-2.4,10-2.4c2.08,0,4.09,0.29,6,0.83"></path> </g> </g> </svg>